<svg width="50" height="43" viewBox="0 0 50 43" fill="none" xmlns="http://www.w3.org/2000/svg">
<path d="M26.8738 13.3115L28.8791 1.66289C29.044 0.705469 29.9035 0 30.9105 0C31.5615 0 32.1692 0.293945 32.5598 0.797852L34.0269 2.6875H38.5497C39.6522 2.6875 40.7113 3.11582 41.4926 3.87168L43.0552 5.375H47.9166C49.0711 5.375 50 6.27363 50 7.39062V9.40625C50 13.1184 46.8922 16.125 43.0552 16.125H40.2773H38.8883H37.0392L36.5965 18.6865L26.8738 13.3115ZM36.1104 21.5084V40.3125C36.1104 41.799 34.869 43 33.3325 43H30.5545C29.018 43 27.7766 41.799 27.7766 40.3125V30.6375C25.6932 31.6705 23.3319 32.25 20.8318 32.25C18.3317 32.25 15.9704 31.6705 13.887 30.6375V40.3125C13.887 41.799 12.6456 43 11.1091 43H8.33114C6.7946 43 5.55322 41.799 5.55322 40.3125V20.9793C3.05308 20.0639 1.09117 18.0146 0.414055 15.3943L0.084177 14.0926C-0.289107 12.6564 0.613719 11.1951 2.10685 10.834C3.59999 10.4729 5.1018 11.3463 5.47509 12.7908L5.81365 14.0926C6.11748 15.2852 7.22865 16.125 8.50476 16.125H11.1091H12.498H26.3703L36.1104 21.5084ZM40.2773 6.71875C40.2773 6.36237 40.1309 6.02058 39.8704 5.76858C39.61 5.51657 39.2567 5.375 38.8883 5.375C38.5199 5.375 38.1666 5.51657 37.9062 5.76858C37.6457 6.02058 37.4993 6.36237 37.4993 6.71875C37.4993 7.07513 37.6457 7.41692 37.9062 7.66892C38.1666 7.92093 38.5199 8.0625 38.8883 8.0625C39.2567 8.0625 39.61 7.92093 39.8704 7.66892C40.1309 7.41692 40.2773 7.07513 40.2773 6.71875Z" fill="#FF0202"/>
</svg>
