<svg width="48" height="61" viewBox="0 0 48 61" fill="none" xmlns="http://www.w3.org/2000/svg">
<path d="M24 0.166504C26.9174 0.166504 29.7153 1.44834 31.7782 3.73004C33.8411 6.01173 35 9.10637 35 12.3332C35 15.56 33.8411 18.6546 31.7782 20.9363C29.7153 23.218 26.9174 24.4998 24 24.4998C21.0826 24.4998 18.2847 23.218 16.2218 20.9363C14.1589 18.6546 13 15.56 13 12.3332C13 9.10637 14.1589 6.01173 16.2218 3.73004C18.2847 1.44834 21.0826 0.166504 24 0.166504ZM24 30.5832C36.155 30.5832 47 35.2779 47 42L47.5 52C47.5 52 41.2661 57.208 36.5 59C31.8726 60.7398 24 61 24 61C24 61 16.1274 60.7398 11.5 59C6.73394 57.208 0.5 52 0.5 52L1 43C1 36.2779 11.845 30.5832 24 30.5832Z" fill="white"/>
</svg>
